<svg width="512" height="512" viewBox="0 0 512 512" fill="none" xmlns="http://www.w3.org/2000/svg">
  <rect width="512" height="512" fill="#F8F5EE"/>
  <path d="M70 70H442V442H70V70Z" fill="#FFFAF0" stroke="#17120F" stroke-width="18"/>
  <path d="M92 92H464V464H92V92Z" stroke="#D94F2B" stroke-width="16"/>
  <path d="M134 154H248C306 154 340 187 340 238C340 274 321 301 287 315L344 388H289L240 323H190V388H134V154ZM190 278H244C269 278 284 264 284 239C284 215 269 201 244 201H190V278Z" fill="#17120F"/>
  <path d="M372 176L402 154V388H372V176Z" fill="#D94F2B"/>
  <path d="M110 116H212" stroke="#D94F2B" stroke-width="14"/>
  <path d="M110 424H226" stroke="#17120F" stroke-width="14"/>
</svg>
